<svg xmlns="http://www.w3.org/2000/svg" viewBox="0 0 512 512" role="img" aria-labelledby="title desc">
  <title id="title">MAYA relic in construction</title>
  <desc id="desc">An abstract mask split between a completed relic and its geometric construction, with an M-shaped brow.</desc>
  <defs>
    <clipPath id="left"><rect width="256" height="512" /></clipPath>
    <clipPath id="right"><rect x="256" width="256" height="512" /></clipPath>
  </defs>

  <g clip-path="url(#left)">
    <path fill="#171717" d="M256 42C178 42 109 90 82 164c-22 60-18 139 9 202 29 68 86 106 165 106V42Z" />
    <path fill="#F2EBDD" d="M238 76c-44 5-83 26-109 60l31 25c19-24 46-40 78-44V76Zm0 73c-25 4-47 15-65 32l65 64v-96Zm-89 61-34 22c-10 44-3 95 17 136l37-19c-15-31-21-68-14-103l54 54 29-29-89-61Zm39 176c14 14 31 25 50 31v-46c-8-4-16-9-23-16l-27 31Z" />
    <path fill="#F2A900" d="M151 281a54 54 0 1 0 108 0 54 54 0 0 0-108 0Zm28 0a26 26 0 1 1 52 0 26 26 0 0 1-52 0Z" />
    <circle cx="205" cy="281" r="10" fill="#171717" />
    <path fill="#F2EBDD" d="M111 176c-11 0-20 9-20 20s9 20 20 20 20-9 20-20-9-20-20-20Zm22 207c-10 0-18 8-18 18s8 18 18 18 18-8 18-18-8-18-18-18Z" />
  </g>

  <g clip-path="url(#right)" fill="none" stroke="#171717" stroke-width="9" stroke-linecap="round" stroke-linejoin="round">
    <path d="M256 42c78 0 147 48 174 122 22 60 18 139-9 202-29 68-86 106-165 106" />
    <path d="M274 76c44 5 83 26 109 60l-31 25c-19-24-46-40-78-44" />
    <path d="m274 149 65 32-65 64" />
    <path d="m363 210 34 22c10 44 3 95-17 136l-37-19c15-31 21-68 14-103l-54 54-29-29 89-61Z" />
    <circle cx="307" cy="281" r="54" />
    <circle cx="307" cy="281" r="26" />
    <circle cx="401" cy="196" r="20" />
    <circle cx="379" cy="401" r="18" />
    <path stroke-width="5" d="M256 56v404M274 281h154M307 205v151M351 103l-88 252M292 82c67 13 117 72 117 143M284 438c64-10 112-52 132-111" />
    <path stroke-width="6" stroke-dasharray="16 13" d="M286 62c81 15 139 87 139 170M406 327c-18 58-61 101-120 116" />
    <g fill="#171717" stroke="none">
      <circle cx="307" cy="281" r="7" /><circle cx="401" cy="196" r="7" />
      <circle cx="379" cy="401" r="7" /><circle cx="351" cy="103" r="7" />
    </g>
  </g>

  <path d="M122 166l86 82 48-48 48 48 86-82" fill="none" stroke="#F2EBDD" stroke-width="25" stroke-linecap="round" stroke-linejoin="round" clip-path="url(#left)" />
  <path d="M256 200l48 48 86-82" fill="none" stroke="#171717" stroke-width="11" stroke-linecap="round" stroke-linejoin="round" clip-path="url(#right)" />
  <path d="M256 34v444" stroke="#171717" stroke-width="7" stroke-linecap="round" />
  <circle cx="256" cy="34" r="8" fill="#171717" />
  <circle cx="256" cy="478" r="8" fill="#171717" />
  <path d="M325 348l32-30" stroke="#F2A900" stroke-width="8" stroke-linecap="round" />
  <circle cx="325" cy="348" r="11" fill="#F2A900" stroke="#171717" stroke-width="6" />
</svg>
